<?xml version="1.0" standalone="no"?>
<!DOCTYPE svg PUBLIC "-//W3C//DTD SVG 20010904//EN"
 "http://www.w3.org/TR/2001/REC-SVG-20010904/DTD/svg10.dtd">
<svg version="1.0" xmlns="http://www.w3.org/2000/svg"
 width="260.000000pt" height="192.000000pt" viewBox="0 0 260.000000 192.000000"
 preserveAspectRatio="xMidYMid meet">

<g transform="translate(0.000000,192.000000) scale(0.100000,-0.100000)"
fill="#000000" stroke="none">
<path d="M416 1307 c-46 -113 -156 -451 -149 -457 4 -4 80 -33 168 -63 88 -30
168 -58 178 -62 15 -6 17 0 17 68 l0 75 -42 16 c-24 9 -65 24 -93 34 -38 14
-50 23 -48 38 1 10 26 90 57 176 30 87 51 160 46 163 -5 3 -35 15 -65 25 l-56
19 -13 -32z"/>
<path d="M710 1168 l0 -73 95 -34 c52 -18 95 -34 95 -36 0 -1 -11 -31 -24 -66
-63 -171 -97 -282 -90 -289 17 -15 116 -42 124 -34 5 5 33 81 63 169 30 88 67
193 82 233 14 41 25 75 23 77 -2 1 -52 19 -113 40 -60 21 -139 48 -174 61 -35
13 -67 24 -72 24 -5 0 -9 -33 -9 -72z"/>
<path d="M1288 1083 c-23 -28 -28 -51 -17 -80 12 -32 26 -43 55 -43 21 0 54
28 54 46 0 4 -7 -2 -16 -14 -17 -24 -53 -29 -72 -10 -7 7 -12 28 -12 48 0 20
5 41 12 48 15 15 51 15 66 0 8 -8 12 -8 12 -1 0 26 -61 30 -82 6z"/>
<path d="M1434 1092 c-44 -29 -35 -116 14 -129 42 -10 76 16 80 61 2 25 -2 44
-14 57 -17 19 -59 25 -80 11z m72 -19 c30 -40 5 -103 -42 -103 -25 0 -44 26
-44 60 0 55 56 82 86 43z"/>
<path d="M1787 1093 c-4 -3 -7 -35 -7 -70 l0 -63 53 2 c50 1 50 2 10 5 -40 4
-43 6 -43 33 0 26 4 29 38 33 l37 4 -37 1 c-33 2 -38 5 -38 26 0 22 5 25 43
29 l42 4 -46 1 c-25 1 -49 -1 -52 -5z"/>
<path d="M1927 1082 c-10 -10 -17 -34 -17 -54 0 -46 29 -73 67 -64 15 4 34 7
41 8 6 1 12 14 12 30 0 25 -3 28 -32 27 -24 -1 -27 -3 -10 -6 31 -6 29 -41 -3
-49 -35 -9 -53 1 -61 32 -16 63 34 107 77 68 20 -18 27 -6 7 14 -18 18 -63 14
-81 -6z"/>
<path d="M2070 1030 l0 -70 48 2 47 1 -42 4 c-40 4 -43 6 -43 33 0 26 4 29 38
33 l37 4 -37 1 c-33 2 -38 5 -38 26 0 22 5 25 43 29 l42 4 -47 1 -48 2 0 -70z"/>
<path d="M1562 1028 l3 -63 40 -1 c32 -1 34 -1 8 3 -35 5 -37 9 -33 86 1 22
-3 37 -10 37 -7 0 -10 -21 -8 -62z"/>
<path d="M1671 1028 l-1 -68 43 1 42 2 -35 6 c-34 6 -35 8 -38 56 -5 76 -10
78 -11 3z"/>
</g>
</svg>
