<svg id="Capa_1" enable-background="new 0 0 512 512" height="512" viewBox="0 0 512 512" width="512" xmlns="http://www.w3.org/2000/svg"><g><g><path d="m302 296v206h200v-206z" fill="#ffda8f"/><path d="m382 296h40v60h-40z" fill="#ff7d95"/><circle cx="110" cy="110" fill="#ffda8f" r="100"/></g><g><path d="m110.184 139.581c-.03 0-.062 0-.093 0-4.327-.04-8.787-2.652-12.896-7.555-3.549-4.232-9.855-4.787-14.088-1.239-4.232 3.548-4.788 9.855-1.24 14.088 5.287 6.307 11.518 10.723 18.134 12.978v12.147c0 5.523 4.478 10 10 10s10-4.477 10-10v-12.061c11.548-3.993 20.17-15.024 20.17-28.359 0-16.542-13.458-30-30-30-5.514 0-10-4.486-10-10 0-5.469 4.446-9.956 9.9-10 3.594-.071 7.357 1.782 10.915 5.226 3.971 3.841 10.299 3.738 14.141-.231 3.841-3.968 3.737-10.299-.23-14.14-5.134-4.969-10.269-7.758-14.896-9.264v-11.171c0-5.523-4.478-10-10-10s-10 4.477-10 10v11.369c-11.541 4.189-19.831 15.281-19.831 28.211 0 16.542 13.458 30 30 30 5.514 0 10 4.486 10 10 0 5.496-4.448 10.001-9.986 10.001z"/><path d="m110 220c60.654 0 110-49.346 110-110 0-13.724-2.589-27.36-7.544-40.068 13.54-2.449 29.505-3.932 43.544-3.932 96.535 0 180.394 72.951 194.056 163.914l-20.985-20.985c-3.906-3.905-10.236-3.905-14.143 0-3.905 3.905-3.905 10.237 0 14.143l40 40c3.906 3.905 10.236 3.905 14.143 0l40-40c3.905-3.905 3.905-10.237 0-14.143-3.906-3.905-10.236-3.905-14.143 0l-24.232 24.233c-11.907-104.331-105.347-187.162-214.696-187.162-17.428 0-36.974 2.022-52.901 5.382-20.079-31.878-55.078-51.382-93.099-51.382-60.654 0-110 49.346-110 110s49.346 110 110 110zm0-200c49.642 0 90 40.203 90 90 0 49.626-40.374 90-90 90s-90-40.374-90-90 40.374-90 90-90z"/><path d="m422 432h40c5.522 0 10-4.477 10-10s-4.478-10-10-10h-40c-5.522 0-10 4.477-10 10s4.478 10 10 10z"/><path d="m422 472h40c5.522 0 10-4.477 10-10s-4.478-10-10-10h-40c-5.522 0-10 4.477-10 10s4.478 10 10 10z"/><path d="m17.072 303.072 24.239-24.239c11.945 104.564 105.571 187.167 214.689 187.167 10.084 0 23.766-.718 36-2.275v38.275c0 5.523 4.478 10 10 10h55c5.522 0 10-4.477 10-10s-4.478-10-10-10h-45c0-23.776 0-165.888 0-186h60v50c0 5.523 4.478 10 10 10h40c5.522 0 10-4.477 10-10v-50h60v186h-45c-5.522 0-10 4.477-10 10s4.478 10 10 10h55c5.522 0 10-4.477 10-10v-206c0-5.523-4.478-10-10-10h-200c-5.522 0-10 4.477-10 10v147.548c-11.907 1.674-26.168 2.452-36 2.452-97.944 0-180.772-71.808-194.115-163.973l21.044 21.044c3.906 3.905 10.236 3.905 14.143 0 3.905-3.905 3.905-10.237 0-14.143l-40-40c-3.906-3.905-10.236-3.905-14.143 0l-40 40c-3.905 3.905-3.905 10.237 0 14.143 3.906 3.906 10.236 3.906 14.143.001zm374.928 2.928h20v40h-20z"/><circle cx="402" cy="502" r="10"/></g></g></svg>